<svg width="64" height="64" viewBox="0 0 64 64" fill="none" xmlns="http://www.w3.org/2000/svg">
  <rect width="64" height="64" rx="8" fill="#004AC6"/>

  <!-- Left Building -->
  <rect x="14" y="12" width="16" height="40" fill="white"/>

  <!-- Right Building -->
  <rect x="31" y="22" width="19" height="30" fill="white"/>

  <!-- Left Windows -->
  <rect x="18" y="16" width="3" height="3" fill="#004AC6"/>
  <rect x="23" y="16" width="3" height="3" fill="#004AC6"/>

  <rect x="18" y="22" width="3" height="3" fill="#004AC6"/>
  <rect x="23" y="22" width="3" height="3" fill="#004AC6"/>

  <rect x="18" y="28" width="3" height="3" fill="#004AC6"/>
  <rect x="23" y="28" width="3" height="3" fill="#004AC6"/>

  <rect x="18" y="34" width="3" height="3" fill="#004AC6"/>
  <rect x="23" y="34" width="3" height="3" fill="#004AC6"/>

  <rect x="18" y="40" width="3" height="3" fill="#004AC6"/>
  <rect x="23" y="40" width="3" height="3" fill="#004AC6"/>

  <!-- Right Windows -->
  <rect x="35" y="26" width="3" height="3" fill="#004AC6"/>
  <rect x="40" y="26" width="3" height="3" fill="#004AC6"/>

  <rect x="35" y="32" width="3" height="3" fill="#004AC6"/>
  <rect x="40" y="32" width="3" height="3" fill="#004AC6"/>

  <rect x="35" y="38" width="3" height="3" fill="#004AC6"/>
  <rect x="40" y="38" width="3" height="3" fill="#004AC6"/>

  <!-- Door -->
  <rect x="28" y="43" width="4" height="9" fill="#004AC6"/>
</svg>